<svg width="495" height="130" viewBox="0 0 495 130" fill="none" xmlns="http://www.w3.org/2000/svg">
<circle cx="65" cy="65" r="65" fill="url(#paint0_linear_804_27)"/>
<path d="M35.0586 48.8114C37.3525 48.8114 39.1465 47.0542 39.1465 44.8576C39.1465 42.6318 37.3525 40.9038 35.0586 40.9038C32.794 40.9038 31 42.6318 31 44.8576C31 47.0542 32.794 48.8114 35.0586 48.8114ZM35.0586 84.8057C37.2937 84.8057 38.7348 83.3413 38.7348 80.969V56.4261C38.7348 54.0539 37.2937 52.5602 35.0586 52.5602C32.8234 52.5602 31.4117 54.0539 31.4117 56.3969V80.969C31.4117 83.3413 32.8234 84.8057 35.0586 84.8057Z" fill="white"/>
<path d="M48.3448 84.8057C50.4623 84.8057 51.9622 83.4877 51.9622 81.1447V78.9189H52.1092C53.962 82.5212 57.4618 84.7178 62.0203 84.7178C69.9316 84.7178 74.9019 78.626 74.9019 68.6976C74.9019 58.7691 69.9022 52.6481 62.0498 52.6481C57.6089 52.6481 54.0797 54.8739 52.2857 58.5056H52.1092V45.2091C52.1092 42.7489 50.6093 41.3724 48.4624 41.3724C46.3155 41.3724 44.7862 42.7489 44.7862 45.2091V81.1447C44.7862 83.517 46.2272 84.8057 48.3448 84.8057ZM59.7852 78.7432C55.2561 78.7432 52.0798 74.7894 52.0798 68.6976C52.0798 62.6644 55.2561 58.652 59.7852 58.652C64.4614 58.652 67.4023 62.5472 67.4023 68.6976C67.4023 74.8772 64.4614 78.7432 59.7852 78.7432Z" fill="white"/>
<path fill-rule="evenodd" clip-rule="evenodd" d="M74.8171 48.1065C73.8933 48.6391 72.8471 50.0187 73.7132 52.3013C73.9327 52.8799 74.4899 53.5526 75.1993 54.4093C77.2705 56.9101 80.6399 60.9785 80.6991 68.8495C80.6399 76.7206 77.2705 80.789 75.1993 83.2898C74.4899 84.1464 73.9327 84.8191 73.7132 85.3978C72.8471 87.6804 73.8933 89.06 74.8171 89.5926C76.7569 90.6883 79.2327 88.9303 80.1158 88.0471C84.8763 83.2866 86.856 75.9812 86.9329 69.0601H86.9352C86.9352 68.9899 86.935 68.9198 86.9346 68.8495C86.935 68.7793 86.9352 68.7091 86.9352 68.639H86.9329C86.856 61.7179 84.8763 54.4124 80.1158 49.6519C79.2327 48.7688 76.7569 47.0108 74.8171 48.1065Z" fill="white"/>
<path fill-rule="evenodd" clip-rule="evenodd" d="M85.9641 42.1979C84.9704 42.8807 83.8449 44.6491 84.7766 47.5751C85.0128 48.3168 85.6121 49.1791 86.3753 50.2772C88.6078 53.4893 92.2425 58.719 92.2919 68.8484C92.2425 78.9779 88.6078 84.2075 86.3753 87.4196C85.6121 88.5177 85.0128 89.3801 84.7766 90.1217C83.8449 93.0478 84.9704 94.8162 85.9641 95.4989C88.0509 96.9035 90.7141 94.65 91.6641 93.5179C96.8085 87.3877 98.9342 77.9654 98.9985 69.0576H99C99 68.9879 98.9999 68.9182 98.9996 68.8484C98.9999 68.7787 99 68.709 99 68.6393H98.9985C98.9342 59.7314 96.8085 50.3091 91.6641 44.179C90.7141 43.0469 88.0509 40.7934 85.9641 42.1979Z" fill="white"/>
<path d="M167.851 94.8431C171.532 94.8431 173.702 92.5686 173.702 88.6863V42.9216C173.702 39 171.532 36.7255 167.851 36.7255C164.17 36.7255 162 39 162 42.9216V88.6863C162 92.5686 164.17 94.8431 167.851 94.8431Z" fill="#0888FF"/>
<path d="M187.661 94.098H206.57C218.504 94.098 225.904 87.8627 225.904 77.902C225.904 70.4118 220.325 64.8039 212.731 64.2157V63.902C218.659 63 223.231 57.8235 223.231 51.6275C223.231 42.9608 216.644 37.5098 206.144 37.5098H187.661C183.98 37.5098 181.811 39.7843 181.811 43.6667V87.902C181.811 91.8235 183.98 94.098 187.661 94.098ZM193.512 61.0392V46.3333H203.121C208.585 46.3333 211.723 48.9216 211.723 53.4706C211.723 58.2549 208.158 61.0392 201.92 61.0392H193.512ZM193.512 85.2745V68.8431H203.315C210.212 68.8431 213.97 71.6667 213.97 76.9608C213.97 82.3726 210.328 85.2745 203.586 85.2745H193.512Z" fill="#0888FF"/>
<path d="M245.173 94.8824C251.45 94.8824 255.557 91.8235 257.61 86.5294H257.843V89.1176C257.843 92.9216 260.051 94.9216 263.306 94.9216C266.561 94.9216 268.769 92.9216 268.769 89.1176V57.1961C268.769 53.2745 266.445 51.1961 263.112 51.1961C259.819 51.1961 257.455 53.2745 257.455 57.1961V76.1373C257.455 81.7059 254.317 85.3529 249.28 85.3529C244.281 85.3529 241.53 82.3726 241.53 76.7647V57.1961C241.53 53.2745 239.205 51.1961 235.873 51.1961C232.58 51.1961 230.216 53.2745 230.216 57.1961V79.1569C230.216 88.9608 236.183 94.8824 245.173 94.8824Z" fill="#0888FF"/>
<path d="M291.873 95C302.839 95 310.239 89.5882 310.239 81.2353C310.239 74.9608 306.597 71.6667 297.763 69.7843L290.905 68.2941C286.759 67.3922 285.131 65.9412 285.131 63.7451C285.131 61.0392 287.805 59.1961 291.641 59.1961C295.709 59.1961 297.957 61.1569 299.933 63.7059C300.94 64.9216 302.567 65.4706 304.04 65.4706C306.946 65.4706 308.38 63.8627 308.38 61.549C308.38 61 308.263 60.451 308.108 59.8627C306.752 55.1176 300.436 51.1569 291.835 51.1569C281.063 51.1569 274.205 56.3333 274.205 64.3726C274.205 70.6078 278.312 74.8039 286.449 76.5686L293.423 78.0588C297.492 78.9608 298.925 80.1765 298.925 82.451C298.925 85.2353 296.252 86.9608 292.145 86.9608C287.844 86.9608 285.286 85.6275 283.078 82.6863C281.528 80.9216 279.978 80.098 278.157 80.098C275.522 80.098 273.585 81.8627 273.585 84.4902C273.585 85.1176 273.74 85.8627 274.011 86.6078C275.987 91.549 282.342 95 291.873 95Z" fill="#0888FF"/>
<path d="M320.518 46.8431C323.928 46.8431 326.563 44.2157 326.563 40.9216C326.563 37.5882 323.928 35 320.518 35C317.108 35 314.474 37.5882 314.474 40.9216C314.474 44.2157 317.108 46.8431 320.518 46.8431ZM320.518 94.9216C324.005 94.9216 326.175 92.6863 326.175 88.9608V57.1961C326.175 53.4706 324.005 51.1961 320.518 51.1961C316.992 51.1961 314.861 53.4706 314.861 57.1961V88.9608C314.861 92.6863 316.992 94.9216 320.518 94.9216Z" fill="#0888FF"/>
<path d="M338.198 94.9216C341.53 94.9216 343.855 92.8824 343.855 88.9608V69.9804C343.855 64.5294 347.071 60.7647 352.146 60.7647C357.222 60.7647 359.78 63.902 359.78 69.3922V88.9608C359.78 92.8824 362.104 94.9216 365.437 94.9216C368.73 94.9216 371.094 92.8824 371.094 88.9608V67C371.094 57.1569 365.902 51.2745 356.68 51.2745C350.287 51.2745 346.102 54.1373 343.893 59.3529H343.661V57C343.661 53.3922 341.414 51.1961 338.004 51.1961C334.594 51.1961 332.541 53.3922 332.541 56.9608V88.9608C332.541 92.8824 334.904 94.9216 338.198 94.9216Z" fill="#0888FF"/>
<path d="M396.174 95C404.194 95 410.626 91.9412 413.377 86.7647C413.881 85.8235 414.152 84.8824 414.152 83.9804C414.152 81.3529 412.176 79.7843 409.735 79.7843C408.263 79.7843 407.255 80.2157 406.054 81.4706C402.993 85.1176 400.281 86.5294 396.135 86.5294C390.4 86.5294 386.681 82.451 386.681 76.2157V75.7059H410.394C413.532 75.7059 415.315 73.902 415.315 70.7255C415.315 59.3137 407.41 51.1569 395.631 51.1569C383.349 51.1569 375.56 59.7451 375.56 73.2745C375.56 86.8824 383.194 95 396.174 95ZM386.797 68.6863C387.184 63.3137 390.788 59.6275 395.748 59.6275C400.707 59.6275 404.194 63.1961 404.427 68.6863H386.797Z" fill="#0888FF"/>
<path d="M436.908 95C447.873 95 455.274 89.5882 455.274 81.2353C455.274 74.9608 451.631 71.6667 442.797 69.7843L435.939 68.2941C431.793 67.3922 430.166 65.9412 430.166 63.7451C430.166 61.0392 432.839 59.1961 436.675 59.1961C440.744 59.1961 442.991 61.1569 444.967 63.7059C445.974 64.9216 447.602 65.4706 449.074 65.4706C451.98 65.4706 453.414 63.8627 453.414 61.549C453.414 61 453.298 60.451 453.143 59.8627C451.786 55.1176 445.471 51.1569 436.869 51.1569C426.097 51.1569 419.239 56.3333 419.239 64.3726C419.239 70.6078 423.346 74.8039 431.483 76.5686L438.457 78.0588C442.526 78.9608 443.96 80.1765 443.96 82.451C443.96 85.2353 441.286 86.9608 437.179 86.9608C432.878 86.9608 430.321 85.6275 428.112 82.6863C426.562 80.9216 425.012 80.098 423.191 80.098C420.556 80.098 418.619 81.8627 418.619 84.4902C418.619 85.1176 418.774 85.8627 419.045 86.6078C421.021 91.549 427.376 95 436.908 95Z" fill="#0888FF"/>
<path d="M476.634 95C487.599 95 495 89.5882 495 81.2353C495 74.9608 491.358 71.6667 482.524 69.7843L475.665 68.2941C471.519 67.3922 469.892 65.9412 469.892 63.7451C469.892 61.0392 472.566 59.1961 476.402 59.1961C480.47 59.1961 482.717 61.1569 484.693 63.7059C485.701 64.9216 487.328 65.4706 488.801 65.4706C491.707 65.4706 493.14 63.8627 493.14 61.549C493.14 61 493.024 60.451 492.869 59.8627C491.513 55.1176 485.197 51.1569 476.595 51.1569C465.824 51.1569 458.965 56.3333 458.965 64.3726C458.965 70.6078 463.073 74.8039 471.209 76.5686L478.184 78.0588C482.252 78.9608 483.686 80.1765 483.686 82.451C483.686 85.2353 481.012 86.9608 476.905 86.9608C472.604 86.9608 470.047 85.6275 467.838 82.6863C466.289 80.9216 464.739 80.098 462.918 80.098C460.283 80.098 458.345 81.8627 458.345 84.4902C458.345 85.1176 458.5 85.8627 458.772 86.6078C460.748 91.549 467.102 95 476.634 95Z" fill="#0888FF"/>
<defs>
<linearGradient id="paint0_linear_804_27" x1="26.0335" y1="79.01" x2="121.482" y2="114.395" gradientUnits="userSpaceOnUse">
<stop stop-color="#68B6FF"/>
<stop offset="1" stop-color="#0084FF"/>
</linearGradient>
</defs>
</svg>
